<?xml version="1.0" encoding="utf-8"?>
<!-- Generator: Adobe Illustrator 23.1.0, SVG Export Plug-In . SVG Version: 6.00 Build 0)  -->
<svg version="1.1" id="Layer_1" xmlns="http://www.w3.org/2000/svg" xmlns:xlink="http://www.w3.org/1999/xlink" x="0px" y="0px"
	 viewBox="0 0 486.1 371.8" style="enable-background:new 0 0 486.1 371.8;" xml:space="preserve">
<style type="text/css">
	.st0{fill:#FFFFFF;}
</style>
<g>
	<path class="st0" d="M0,0v371.8h475.1V0H0z M237.5,188.7c-18.5-0.3-28.8-5.1-24.8-15.7c4.1,19.4,40.2,11.3,77.3,1.2
		C274.5,181.4,258.4,189.2,237.5,188.7z M462.9,78.6v4.1c0,0,0-0.1-0.1-0.1v4v273H317.2c-0.3-1.4-0.5-2.8-0.8-4.1
		c-0.3-2.2-1.3-4.1-1.3-6.3c0-1.5,1.3-2.8,1.5-4.3c2.6-38.9,13.9-64.7,21.2-98.4c1.2-5.6,2.6-10.8,2.2-13.1c8.8-6,17.2-9.6,23-20.2
		c12.9-9.4,21.2-18.7,22.7-28.5c4.3-4.6,14.4-3.6,14.4-13.1c4.6-4.6,7.1-8.3,7.9-13.4c6.3-8.1,15.1-17.1,15.6-22.7
		c8.6-6.3,14.4-10.8,11.1-17.4c5-2.3,7.8-7.4,6.5-12.3c3.6-4.5,10.9-5,13.2-9.3c1.3-1.7,2.9-3.5,4.6-5.4c1.2-1.3,2.3-2.6,3.4-3.9
		v-7.3c0-0.2,0-0.3,0-0.5v-8.2c-0.2-0.2-0.3-0.4-0.5-0.6c-0.5-0.6-1-1.1-1.5-1.7c0.3-5.5-2.5-7.9-8.8-8.8c0.5-5.3,2.8-11.4,4.3-16.9
		c2.6-4.1,3.1-7.3,1.5-9.4c-3.5-3.3-6.1,0.2-10.1,7.1c-1.8,3.6-4.3,9.6-6.3,13.2c-2.3,3.1-4.3,6.1-6.3,10.3
		c-3.8,4.1-8.3,11.4-8.3,16.9c-2,2.7-2.3,4.3-4.3,5.5c-0.8-0.3-2.3-0.8-3.8,1c-0.5,2.3-2,3.6-2,5.3c-4.3-1.7-7.5,2.2-9.8,9.4
		c-1.5,0.8-5.1,2-5.3,3.3c-1.8,1.3-2.3,3.3-4.1,4.5c-4,0.5-4.6,4.8-7.1,7.3c-2.3,0.8-4.1,3.8-5.6,6.6c-3-0.2-6.1,3.8-7.4,7
		c-5.5,3.3-7.5,5.8-9.3,10.4c-4.1,0.3-9.3,2.5-11.8,7.5c-4.5,2.8-9.4,7.5-11.4,12.3c-4.6,3.1-7.6,7.8-12.3,15.2
		c-5-2.3-10.4-2.3-16.1,0c-3.5-0.8-6.8-1.5-10.3-2.2c-2-2-2.2-4-0.8-6c0-2.2,0-4.3,0-6.6c1.5-5.3,3-10.6,4.5-16.1
		c4-9.8,4-18.7,2.5-27.8c0.5-8.3-0.3-15.9-4-24.3c-9.3-6.8-22.7-12.3-33.9-12.3c-14.1-1.8-23.8,0-33.4,5.1c-5.1,3-9.9,6.8-15.1,9.8
		c-5.6,2.8-10.4,15.9-15.6,23.8c-5.3,11.4-1.2,12.6,3.6,10.3h0.2c-9.4-0.3-0.8-8.6,3.1-8.9c13.4-1.3,27.8-1,48.5,11.9
		c6.5,3.6,12.7,7,18.5,5.3c2.5,3.1-2.8,7.8-8.9,9.3c-29.6,1.7-57.6,1.8-60.3-5.5c1.2-4,1.3-8.4,2-12.3c-0.5,0-1,0-1.5,0.2
		c2,1.2-0.3,9.3-1,14.7c-3.8,2.8-5,7-3.6,12.4c1.5,4.1,2.8,8.4,1.5,14.6c-1.7,0.3-3.5,0.5-5.1,0.8c-2.5-1.3-4.8-2.5-7.3-3.6
		c-4-1-7-0.5-9.6,0.7c-3.8-4.8-7.8-5-11.6-4.5c-2.5-2.2-5-4.3-7.5-6.5c-0.5-8.1-4.6-13.7-12.4-14.4c-3.3-2.5-6.8-3.6-10.3-6.1
		c0-2.2,0-4.5,0-6.6c-1.3-4.1-3.5-8.1-10.1-10.3c-5.3,0.5-6.6-4.6-9.8-9.4c-4.1-3.5-8.1-7.5-12.3-10.8c-2-3-6.1-4.6-8.1-7.6
		c-2.8-1.5-4.3-3.8-7.3-5.3c-1.2-1.2-2.8-5-4.8-6.8c-1.7-1.5-3.6-1.2-5-1.2c-1.5-2.3-2-2.7-3.3-5c-3-2.3-6-4.5-8.9-6.6
		c-2.3-3-4.8-5.8-7.3-8.8c-2-1.5-3.8-3-5.8-4.5c-3.8-7.5-10.3-15.1-13.4-21.2c-2.3-3.1-1.3-5.6-3.5-8.8c-1.1-2.1-2.2-4.1-3.2-6.2
		l-3.9-7.4h-4.3c-0.8,1.3-1,3.6-1,6.3c1,3.6,2,7.3,3,10.9c0,3.5,1.7,5.6,1.7,9.1c-4.3-0.2-6.8,2.5-10.3,6.8
		c-5.8,7.4-4.1,6.3-2.5,11.3c2.2,6-0.2,10.1,5.1,12.4c2.8,1.2,5-2,6-5.8c1.7,4.8,2.8,7.5,4.6,12.4c1.8,2.3,4.8,6.3,7.8,5.1
		c4.6,0,5.8,3.1,6.6,6.5c-1.3,5.6,0.2,5.1,3.1,8.8c1.3,2.2,2.5,5.3,3.6,6.1c0.5,0.5,2,1.8,2.5,2.5c3.6,4.5,6.3,9.3,9.9,13.7
		c6.8,5.1,10.6,8.9,12.9,13.4c10.8,14.1,13.9,21.2,22.5,27.8c2.2,3.3,6.3,5.5,6.8,9.8c0.8,7.9,14.2,19.5,22,27
		c11.6,11.4,22.8,20.5,36.6,29.3c12.7,34.8,23.3,80.1,20,117.9c-1.4,5.6-2.5,10.7-3.7,15.9H12.3V12.3h25.1h4.3
		c0-0.1-0.1-0.2-0.1-0.3c-0.3-0.2-0.5-0.3-0.8-0.3h422.2l0,60.6c0,0,0-0.1-0.1-0.1L462.9,78.6C462.8,78.6,462.9,78.6,462.9,78.6z"/>
	<g>
		<g>
			<path class="st0" d="M478.4,4c0-0.4,0-0.7,0.1-1c0.1-0.3,0.2-0.6,0.4-0.9s0.4-0.6,0.6-0.8c0.2-0.2,0.5-0.4,0.8-0.6
				c0.3-0.2,0.6-0.3,0.9-0.4c0.3-0.1,0.7-0.2,1-0.2c0.4,0,0.7,0,1,0.1c0.3,0.1,0.6,0.2,0.9,0.4c0.3,0.2,0.6,0.4,0.8,0.6
				c0.2,0.2,0.4,0.5,0.6,0.8c0.2,0.3,0.3,0.6,0.4,0.9s0.2,0.7,0.2,1c0,0.4,0,0.7-0.1,1c-0.1,0.3-0.2,0.6-0.4,0.9
				c-0.2,0.3-0.4,0.6-0.6,0.8c-0.2,0.2-0.5,0.4-0.8,0.6c-0.3,0.2-0.6,0.3-0.9,0.4c-0.3,0.1-0.7,0.2-1,0.2c-0.4,0-0.7,0-1-0.1
				c-0.3-0.1-0.6-0.2-0.9-0.4c-0.3-0.2-0.6-0.4-0.8-0.6c-0.2-0.2-0.4-0.5-0.6-0.8c-0.2-0.3-0.3-0.6-0.4-0.9
				C478.4,4.7,478.4,4.3,478.4,4z M479.1,3.9c0,0.5,0.1,0.9,0.3,1.3c0.2,0.4,0.4,0.7,0.7,1c0.3,0.3,0.6,0.5,1,0.7
				c0.4,0.2,0.8,0.2,1.2,0.2c0.4,0,0.9-0.1,1.2-0.3c0.4-0.2,0.7-0.4,1-0.7c0.3-0.3,0.5-0.6,0.7-1c0.2-0.4,0.2-0.8,0.2-1.3
				c0-0.3,0-0.6-0.1-0.9c-0.1-0.3-0.2-0.5-0.3-0.8c-0.1-0.2-0.3-0.5-0.5-0.7c-0.2-0.2-0.4-0.4-0.7-0.5c-0.2-0.1-0.5-0.2-0.8-0.3
				c-0.3-0.1-0.6-0.1-0.9-0.1c-0.3,0-0.6,0.1-0.8,0.1c-0.3,0.1-0.5,0.2-0.8,0.3c-0.2,0.1-0.4,0.3-0.6,0.5c-0.2,0.2-0.3,0.4-0.5,0.7
				c-0.1,0.2-0.2,0.5-0.3,0.8C479.1,3.3,479.1,3.6,479.1,3.9z M481.7,4.5l0,1.7l-1.1,0l-0.1-4.7l1.7,0c0.7,0,1.1,0.1,1.4,0.3
				c0.3,0.2,0.5,0.6,0.5,1c0,0.3-0.1,0.6-0.2,0.8c-0.2,0.2-0.4,0.4-0.7,0.5c0.1,0,0.1,0.1,0.2,0.2c0.1,0.1,0.1,0.1,0.2,0.2l1,1.6
				l-1.1,0c-0.2,0-0.3-0.1-0.3-0.2l-0.8-1.4c0,0-0.1-0.1-0.1-0.1c0,0-0.1,0-0.2,0L481.7,4.5z M481.6,3.7l0.5,0c0.2,0,0.3,0,0.4-0.1
				c0.1,0,0.2-0.1,0.3-0.1c0.1-0.1,0.1-0.1,0.1-0.2c0-0.1,0-0.2,0-0.3c0-0.1,0-0.2,0-0.3c0-0.1-0.1-0.1-0.1-0.2
				c-0.1-0.1-0.1-0.1-0.2-0.1c-0.1,0-0.2,0-0.4,0l-0.6,0L481.6,3.7z"/>
		</g>
	</g>
</g>
</svg>
